<mxfile host="app.diagrams.net" modified="2022-05-21T04:53:44.475Z" agent="5.0 (Windows NT 10.0; Win64; x64) AppleWebKit/537.36 (KHTML, like Gecko) Chrome/101.0.0.0 Safari/537.36" etag="9fdVeTC63e8RBJu65Dp5" version="18.0.5" type="github">
  <diagram id="mpmAJTw458juSx7aUYDo" name="Page-1">
    <mxGraphModel dx="782" dy="380" grid="1" gridSize="10" guides="1" tooltips="1" connect="1" arrows="1" fold="1" page="1" pageScale="1" pageWidth="827" pageHeight="1169" math="0" shadow="0">
      <root>
        <mxCell id="0" />
        <mxCell id="1" parent="0" />
        <mxCell id="r0C9NEI-OeTDAFz4-9kM-1" value="" style="endArrow=classic;html=1;rounded=0;strokeWidth=2;strokeColor=#3399FF;startArrow=none;" edge="1" parent="1" source="r0C9NEI-OeTDAFz4-9kM-37">
          <mxGeometry width="50" height="50" relative="1" as="geometry">
            <mxPoint x="160" y="320" as="sourcePoint" />
            <mxPoint x="550" y="320" as="targetPoint" />
          </mxGeometry>
        </mxCell>
        <mxCell id="r0C9NEI-OeTDAFz4-9kM-5" value="" style="endArrow=none;html=1;rounded=0;strokeColor=#3399FF;strokeWidth=2;" edge="1" parent="1">
          <mxGeometry width="50" height="50" relative="1" as="geometry">
            <mxPoint x="160" y="330" as="sourcePoint" />
            <mxPoint x="160" y="310" as="targetPoint" />
          </mxGeometry>
        </mxCell>
        <mxCell id="r0C9NEI-OeTDAFz4-9kM-6" value="0" style="text;html=1;strokeColor=none;fillColor=none;align=center;verticalAlign=middle;whiteSpace=wrap;rounded=0;strokeWidth=3;fontSize=16;" vertex="1" parent="1">
          <mxGeometry x="140" y="274" width="40" height="30" as="geometry" />
        </mxCell>
        <mxCell id="r0C9NEI-OeTDAFz4-9kM-7" value="" style="endArrow=none;html=1;rounded=0;strokeColor=#3399FF;strokeWidth=2;startArrow=none;" edge="1" parent="1" source="r0C9NEI-OeTDAFz4-9kM-32">
          <mxGeometry width="50" height="50" relative="1" as="geometry">
            <mxPoint x="179" y="330" as="sourcePoint" />
            <mxPoint x="179" y="310" as="targetPoint" />
          </mxGeometry>
        </mxCell>
        <mxCell id="r0C9NEI-OeTDAFz4-9kM-8" value="" style="endArrow=none;html=1;rounded=0;strokeColor=#3399FF;strokeWidth=2;" edge="1" parent="1">
          <mxGeometry width="50" height="50" relative="1" as="geometry">
            <mxPoint x="220" y="330" as="sourcePoint" />
            <mxPoint x="220" y="310" as="targetPoint" />
          </mxGeometry>
        </mxCell>
        <mxCell id="r0C9NEI-OeTDAFz4-9kM-9" value="" style="endArrow=none;html=1;rounded=0;strokeColor=#3399FF;strokeWidth=2;" edge="1" parent="1">
          <mxGeometry width="50" height="50" relative="1" as="geometry">
            <mxPoint x="240" y="330" as="sourcePoint" />
            <mxPoint x="240" y="310" as="targetPoint" />
          </mxGeometry>
        </mxCell>
        <mxCell id="r0C9NEI-OeTDAFz4-9kM-10" value="" style="endArrow=none;html=1;rounded=0;strokeColor=#3399FF;strokeWidth=2;" edge="1" parent="1">
          <mxGeometry width="50" height="50" relative="1" as="geometry">
            <mxPoint x="339" y="330" as="sourcePoint" />
            <mxPoint x="339" y="310" as="targetPoint" />
          </mxGeometry>
        </mxCell>
        <mxCell id="r0C9NEI-OeTDAFz4-9kM-11" value="" style="endArrow=none;html=1;rounded=0;strokeColor=#3399FF;strokeWidth=2;" edge="1" parent="1">
          <mxGeometry width="50" height="50" relative="1" as="geometry">
            <mxPoint x="520" y="330" as="sourcePoint" />
            <mxPoint x="520" y="310" as="targetPoint" />
          </mxGeometry>
        </mxCell>
        <mxCell id="r0C9NEI-OeTDAFz4-9kM-14" value="" style="shape=partialRectangle;whiteSpace=wrap;html=1;top=0;bottom=0;fillColor=none;rotation=30;strokeWidth=2;strokeColor=#3399FF;" vertex="1" parent="1">
          <mxGeometry x="436.25" y="312" width="6" height="17" as="geometry" />
        </mxCell>
        <mxCell id="r0C9NEI-OeTDAFz4-9kM-15" value="" style="endArrow=none;html=1;rounded=0;strokeWidth=2;strokeColor=#3399FF;startArrow=none;" edge="1" parent="1" source="r0C9NEI-OeTDAFz4-9kM-36" target="r0C9NEI-OeTDAFz4-9kM-14">
          <mxGeometry width="50" height="50" relative="1" as="geometry">
            <mxPoint x="160" y="320" as="sourcePoint" />
            <mxPoint x="550" y="320" as="targetPoint" />
          </mxGeometry>
        </mxCell>
        <mxCell id="r0C9NEI-OeTDAFz4-9kM-16" value="1" style="text;html=1;strokeColor=none;fillColor=none;align=center;verticalAlign=middle;whiteSpace=wrap;rounded=0;strokeWidth=3;fontSize=16;" vertex="1" parent="1">
          <mxGeometry x="160" y="274" width="40" height="30" as="geometry" />
        </mxCell>
        <mxCell id="r0C9NEI-OeTDAFz4-9kM-17" value="3" style="text;html=1;strokeColor=none;fillColor=none;align=center;verticalAlign=middle;whiteSpace=wrap;rounded=0;strokeWidth=3;fontSize=16;" vertex="1" parent="1">
          <mxGeometry x="200" y="274" width="40" height="30" as="geometry" />
        </mxCell>
        <mxCell id="r0C9NEI-OeTDAFz4-9kM-18" value="4" style="text;html=1;strokeColor=none;fillColor=none;align=center;verticalAlign=middle;whiteSpace=wrap;rounded=0;strokeWidth=3;fontSize=16;" vertex="1" parent="1">
          <mxGeometry x="220" y="274" width="40" height="30" as="geometry" />
        </mxCell>
        <mxCell id="r0C9NEI-OeTDAFz4-9kM-19" value="7" style="text;html=1;strokeColor=none;fillColor=none;align=center;verticalAlign=middle;whiteSpace=wrap;rounded=0;strokeWidth=3;fontSize=16;" vertex="1" parent="1">
          <mxGeometry x="320" y="274" width="40" height="30" as="geometry" />
        </mxCell>
        <mxCell id="r0C9NEI-OeTDAFz4-9kM-20" value="28" style="text;html=1;strokeColor=none;fillColor=none;align=center;verticalAlign=middle;whiteSpace=wrap;rounded=0;strokeWidth=3;fontSize=16;" vertex="1" parent="1">
          <mxGeometry x="500" y="274" width="40" height="30" as="geometry" />
        </mxCell>
        <mxCell id="r0C9NEI-OeTDAFz4-9kM-21" value="MI" style="text;html=1;strokeColor=none;fillColor=none;align=center;verticalAlign=middle;whiteSpace=wrap;rounded=0;strokeWidth=3;fontSize=16;" vertex="1" parent="1">
          <mxGeometry x="140" y="225" width="40" height="30" as="geometry" />
        </mxCell>
        <mxCell id="r0C9NEI-OeTDAFz4-9kM-22" value="" style="endArrow=blockThin;html=1;rounded=1;fontSize=16;strokeColor=#3399FF;strokeWidth=2;exitX=0.5;exitY=1;exitDx=0;exitDy=0;entryX=0;entryY=0;entryDx=0;entryDy=0;horizontal=1;endFill=1;" edge="1" parent="1" source="r0C9NEI-OeTDAFz4-9kM-21" target="r0C9NEI-OeTDAFz4-9kM-16">
          <mxGeometry width="50" height="50" relative="1" as="geometry">
            <mxPoint x="360" y="350" as="sourcePoint" />
            <mxPoint x="410" y="300" as="targetPoint" />
          </mxGeometry>
        </mxCell>
        <mxCell id="r0C9NEI-OeTDAFz4-9kM-24" value="" style="shape=curlyBracket;whiteSpace=wrap;html=1;rounded=1;flipH=1;fontSize=16;strokeColor=#3399FF;strokeWidth=2;direction=north;size=0.5;" vertex="1" parent="1">
          <mxGeometry x="179" y="332" width="41" height="20" as="geometry" />
        </mxCell>
        <mxCell id="r0C9NEI-OeTDAFz4-9kM-26" value="&lt;font style=&quot;font-size: 12px;&quot;&gt;Cell death&lt;br&gt;Acute inflammation&lt;br&gt;&lt;/font&gt;" style="text;html=1;strokeColor=none;fillColor=none;align=center;verticalAlign=middle;whiteSpace=wrap;rounded=0;strokeWidth=3;fontSize=16;" vertex="1" parent="1">
          <mxGeometry x="126.25" y="352" width="121.5" height="48" as="geometry" />
        </mxCell>
        <mxCell id="r0C9NEI-OeTDAFz4-9kM-27" value="" style="shape=curlyBracket;whiteSpace=wrap;html=1;rounded=1;flipH=1;fontSize=16;strokeColor=#3399FF;strokeWidth=2;direction=north;size=0.5;" vertex="1" parent="1">
          <mxGeometry x="240" y="331" width="99" height="20" as="geometry" />
        </mxCell>
        <mxCell id="r0C9NEI-OeTDAFz4-9kM-28" value="&lt;font style=&quot;font-size: 12px;&quot;&gt;Repair phase&lt;br&gt;Inflamation resolution&lt;br&gt;&lt;/font&gt;" style="text;html=1;strokeColor=none;fillColor=none;align=center;verticalAlign=middle;whiteSpace=wrap;rounded=0;strokeWidth=3;fontSize=16;" vertex="1" parent="1">
          <mxGeometry x="220" y="342" width="165.25" height="68" as="geometry" />
        </mxCell>
        <mxCell id="r0C9NEI-OeTDAFz4-9kM-29" value="&lt;font style=&quot;font-size: 12px;&quot;&gt;Scar formation&lt;br&gt;&lt;/font&gt;" style="text;html=1;strokeColor=none;fillColor=none;align=center;verticalAlign=middle;whiteSpace=wrap;rounded=0;strokeWidth=3;fontSize=16;" vertex="1" parent="1">
          <mxGeometry x="379.5" y="360" width="121.5" height="20" as="geometry" />
        </mxCell>
        <mxCell id="r0C9NEI-OeTDAFz4-9kM-30" value="" style="shape=curlyBracket;whiteSpace=wrap;html=1;rounded=1;flipH=1;fontSize=16;strokeColor=#3399FF;strokeWidth=2;direction=north;size=0.5;" vertex="1" parent="1">
          <mxGeometry x="343.25" y="331" width="176.75" height="20" as="geometry" />
        </mxCell>
        <mxCell id="r0C9NEI-OeTDAFz4-9kM-31" value="Time&lt;br&gt;(days)" style="text;html=1;strokeColor=none;fillColor=none;align=center;verticalAlign=middle;whiteSpace=wrap;rounded=0;strokeWidth=3;fontSize=12;fontStyle=1" vertex="1" parent="1">
          <mxGeometry x="550" y="305.5" width="40" height="30" as="geometry" />
        </mxCell>
        <mxCell id="r0C9NEI-OeTDAFz4-9kM-37" value="" style="ellipse;whiteSpace=wrap;html=1;aspect=fixed;fontSize=12;strokeColor=none;strokeWidth=2;fillColor=#fa6800;fontColor=#000000;" vertex="1" parent="1">
          <mxGeometry x="516" y="316.5" width="8" height="8" as="geometry" />
        </mxCell>
        <mxCell id="r0C9NEI-OeTDAFz4-9kM-40" value="" style="endArrow=none;html=1;rounded=0;strokeWidth=2;strokeColor=#3399FF;startArrow=none;" edge="1" parent="1" source="r0C9NEI-OeTDAFz4-9kM-14" target="r0C9NEI-OeTDAFz4-9kM-37">
          <mxGeometry width="50" height="50" relative="1" as="geometry">
            <mxPoint x="442.7231545574343" y="320.4843198439844" as="sourcePoint" />
            <mxPoint x="550" y="320" as="targetPoint" />
          </mxGeometry>
        </mxCell>
        <mxCell id="r0C9NEI-OeTDAFz4-9kM-36" value="" style="ellipse;whiteSpace=wrap;html=1;aspect=fixed;fontSize=12;strokeColor=none;strokeWidth=2;fillColor=#fa6800;fontColor=#000000;" vertex="1" parent="1">
          <mxGeometry x="335.25" y="316.5" width="8" height="8" as="geometry" />
        </mxCell>
        <mxCell id="r0C9NEI-OeTDAFz4-9kM-41" value="" style="endArrow=none;html=1;rounded=0;strokeWidth=2;strokeColor=#3399FF;startArrow=none;" edge="1" parent="1" source="r0C9NEI-OeTDAFz4-9kM-35" target="r0C9NEI-OeTDAFz4-9kM-36">
          <mxGeometry width="50" height="50" relative="1" as="geometry">
            <mxPoint x="160" y="320" as="sourcePoint" />
            <mxPoint x="435.78947570739024" y="320.49380389562646" as="targetPoint" />
          </mxGeometry>
        </mxCell>
        <mxCell id="r0C9NEI-OeTDAFz4-9kM-35" value="" style="ellipse;whiteSpace=wrap;html=1;aspect=fixed;fontSize=12;strokeColor=none;strokeWidth=2;fillColor=#fa6800;fontColor=#000000;" vertex="1" parent="1">
          <mxGeometry x="236" y="316.5" width="8" height="8" as="geometry" />
        </mxCell>
        <mxCell id="r0C9NEI-OeTDAFz4-9kM-43" value="" style="endArrow=none;html=1;rounded=0;strokeWidth=2;strokeColor=#3399FF;startArrow=none;" edge="1" parent="1" source="r0C9NEI-OeTDAFz4-9kM-34" target="r0C9NEI-OeTDAFz4-9kM-35">
          <mxGeometry width="50" height="50" relative="1" as="geometry">
            <mxPoint x="160" y="320" as="sourcePoint" />
            <mxPoint x="335.25" y="320.5" as="targetPoint" />
          </mxGeometry>
        </mxCell>
        <mxCell id="r0C9NEI-OeTDAFz4-9kM-34" value="" style="ellipse;whiteSpace=wrap;html=1;aspect=fixed;fontSize=12;strokeColor=none;strokeWidth=2;fillColor=#fa6800;fontColor=#000000;" vertex="1" parent="1">
          <mxGeometry x="216" y="316.5" width="8" height="8" as="geometry" />
        </mxCell>
        <mxCell id="r0C9NEI-OeTDAFz4-9kM-44" value="" style="endArrow=none;html=1;rounded=0;strokeWidth=2;strokeColor=#3399FF;" edge="1" parent="1" target="r0C9NEI-OeTDAFz4-9kM-34">
          <mxGeometry width="50" height="50" relative="1" as="geometry">
            <mxPoint x="160" y="320" as="sourcePoint" />
            <mxPoint x="236" y="320.5" as="targetPoint" />
          </mxGeometry>
        </mxCell>
        <mxCell id="r0C9NEI-OeTDAFz4-9kM-32" value="" style="ellipse;whiteSpace=wrap;html=1;aspect=fixed;fontSize=12;strokeColor=none;strokeWidth=2;fillColor=#fa6800;fontColor=#000000;" vertex="1" parent="1">
          <mxGeometry x="175" y="316.5" width="8" height="8" as="geometry" />
        </mxCell>
        <mxCell id="r0C9NEI-OeTDAFz4-9kM-47" value="" style="endArrow=none;html=1;rounded=0;strokeColor=#3399FF;strokeWidth=2;" edge="1" parent="1" target="r0C9NEI-OeTDAFz4-9kM-32">
          <mxGeometry width="50" height="50" relative="1" as="geometry">
            <mxPoint x="179" y="330" as="sourcePoint" />
            <mxPoint x="179" y="310" as="targetPoint" />
          </mxGeometry>
        </mxCell>
      </root>
    </mxGraphModel>
  </diagram>
</mxfile>
